<svg width="17" height="17" viewBox="0 0 17 17" fill="none" xmlns="http://www.w3.org/2000/svg">
<path d="M8.56922 3.89258C6.30022 3.89258 4.46422 5.73158 4.46422 7.99758C4.46422 10.2656 6.30322 12.1026 8.56922 12.1026C10.8382 12.1026 12.6742 10.2636 12.6742 7.99758C12.6742 5.72858 10.8352 3.89258 8.56922 3.89258ZM8.56922 10.6626C7.09722 10.6626 5.90422 9.46958 5.90422 7.99758C5.90422 6.52558 7.09722 5.33258 8.56922 5.33258C10.0412 5.33258 11.2342 6.52458 11.2342 7.99758C11.2342 9.46958 10.0412 10.6626 8.56922 10.6626Z" fill="#fff"/>
<path d="M11.8655 0.0506313C10.3935 -0.0183688 6.74746 -0.0153688 5.27346 0.0506313C3.97845 0.111631 2.83645 0.424632 1.91645 1.34463C0.377453 2.88364 0.574453 4.95664 0.574453 7.99764C0.574453 11.1096 0.401453 13.1356 1.91645 14.6507C3.46045 16.1947 5.56446 15.9927 8.56946 15.9927C12.2525 15.9927 16.2825 16.3457 16.5165 11.2936C16.5855 9.82064 16.5825 6.17564 16.5165 4.70264C16.3845 1.89363 14.8765 0.190632 11.8655 0.0506313ZM14.1945 13.6327C13.1855 14.6417 11.7865 14.5517 8.54846 14.5517C5.21546 14.5517 3.87846 14.6007 2.90245 13.6227C1.77845 12.5046 1.98245 10.7086 1.98245 7.98764C1.98245 1.33763 2.36345 1.42263 8.53846 1.42263L8.56846 1.44263C15.1905 1.44263 15.1225 1.87163 15.1225 7.99764C15.1235 11.2916 15.1865 12.6366 14.1945 13.6327Z" fill="#fff"/>
<path d="M12.8373 4.69046C13.3669 4.69046 13.7963 4.2611 13.7963 3.73146C13.7963 3.20182 13.3669 2.77246 12.8373 2.77246C12.3076 2.77246 11.8783 3.20182 11.8783 3.73146C11.8783 4.2611 12.3076 4.69046 12.8373 4.69046Z" fill="#fff"/>
</svg>
