<svg width="17" height="16" viewBox="0 0 17 16" fill="none" xmlns="http://www.w3.org/2000/svg">
<path d="M16.5623 16.0003L16.5663 15.9993V10.1313C16.5663 7.26031 15.9483 5.04932 12.5923 5.04932C10.9793 5.04932 9.89627 5.93432 9.45427 6.77431H9.40827V5.31732H6.22627V15.9993H9.54027V10.7103C9.54027 9.31731 9.80427 7.97131 11.5293 7.97131C13.2283 7.97131 13.2543 9.56031 13.2543 10.8003V16.0003H16.5623Z" fill="#fff"/>
<path d="M0.830116 5.31849H4.14712V16.0005H0.830116V5.31849Z" fill="#fff"/>
<path d="M2.48712 0.000488281C1.42712 0.000488281 0.566116 0.861488 0.566116 1.92149C0.566116 2.98249 1.42712 3.86049 2.48712 3.86049C3.54712 3.86049 4.40812 2.98249 4.40812 1.92149C4.40812 0.861488 3.54712 0.000488281 2.48712 0.000488281Z" fill="#fff"/>
</svg>
