<svg width="107" height="22" viewBox="0 0 107 22" fill="none" xmlns="http://www.w3.org/2000/svg">
<path fill-rule="evenodd" clip-rule="evenodd" d="M2.56039 3.32059C5.84079 0.0401898 11.1594 0.0401892 14.4398 3.32059C17.7202 6.601 17.7202 11.9196 14.4398 15.2L8.50008 21.1397L2.56039 15.2C-0.720019 11.9196 -0.720019 6.601 2.56039 3.32059ZM8.50008 11.6603C9.82557 11.6603 10.9001 10.5858 10.9001 9.26029C10.9001 7.93481 9.82557 6.86029 8.50008 6.86029C7.1746 6.86029 6.10008 7.93481 6.10008 9.26029C6.10008 10.5858 7.1746 11.6603 8.50008 11.6603Z" fill="white"/>
<path d="M26.9001 11H72.9001" stroke="white" stroke-width="2" stroke-linecap="round" stroke-dasharray="5 5"/>
<path d="M90.7839 17.3887H95.6777V3.33353C95.6777 2.99465 95.5431 2.66965 95.3035 2.43003C95.0638 2.19041 94.7388 2.05579 94.4 2.05579H85.4557" stroke="white" stroke-width="2" stroke-linecap="round" stroke-linejoin="round"/>
<path d="M82.9001 12.2777V16.111C82.9001 16.4499 83.0347 16.7749 83.2743 17.0145C83.514 17.2541 83.839 17.3887 84.1778 17.3887H85.2895" stroke="white" stroke-width="2" stroke-linecap="round" stroke-linejoin="round"/>
<path d="M98.0668 17.3887H95.6774V4.61129H101.108C101.395 4.60068 101.677 4.68693 101.908 4.85614C102.14 5.02535 102.308 5.26766 102.386 5.54404L103.344 9.08339L104.928 9.47949C105.212 9.54945 105.463 9.7144 105.639 9.94688C105.816 10.1794 105.908 10.4654 105.899 10.7572V16.111C105.899 16.4499 105.765 16.7749 105.525 17.0145C105.286 17.2541 104.961 17.3887 104.622 17.3887H103.484" stroke="white" stroke-width="2" stroke-linecap="round" stroke-linejoin="round"/>
<path d="M82.9001 7.16675H90.5666M88.0111 14.8332C87.5056 14.8332 87.0116 14.9831 86.5913 15.2639C86.1711 15.5447 85.8435 15.9438 85.6501 16.4108C85.4567 16.8777 85.4061 17.3915 85.5047 17.8873C85.6033 18.383 85.8467 18.8383 86.2041 19.1957C86.5615 19.5531 87.0168 19.7965 87.5125 19.8951C88.0082 19.9937 88.5221 19.9431 88.989 19.7497C89.456 19.5562 89.8551 19.2287 90.1359 18.8085C90.4167 18.3882 90.5666 17.8941 90.5666 17.3887C90.5666 16.7109 90.2973 16.0609 89.8181 15.5817C89.3388 15.1025 88.6888 14.8332 88.0111 14.8332ZM100.789 14.8332C100.283 14.8332 99.789 14.9831 99.3688 15.2639C98.9485 15.5447 98.621 15.9438 98.4275 16.4108C98.2341 16.8777 98.1835 17.3915 98.2821 17.8873C98.3807 18.383 98.6241 18.8383 98.9815 19.1957C99.3389 19.5531 99.7942 19.7965 100.29 19.8951C100.786 19.9937 101.3 19.9431 101.766 19.7497C102.233 19.5562 102.633 19.2287 102.913 18.8085C103.194 18.3882 103.344 17.8941 103.344 17.3887C103.344 16.7109 103.075 16.0609 102.596 15.5817C102.116 15.1025 101.466 14.8332 100.789 14.8332Z" stroke="white" stroke-width="2" stroke-linecap="round" stroke-linejoin="round"/>
</svg>
